<!-- Made in Mondrian.io -->
<svg xmlns="http://www.w3.org/2000/svg" viewBox="0 0 32 32" xmlns:mondrian="https://mondrian.io/xml">
<path class="st0" d="M25.42857143,18.82857143 L25.42857143,11.28571429 C25.42857143,6.10000000 21.18571429,1.85714286 16.00000000,1.85714286 C10.81428571,1.85714286 6.57142857,6.10000000 6.57142857,11.28571429 L6.57142857,18.82857143 L2.80000000,26.37142857 L11.38000000,26.37142857 C11.85142857,28.54000000 13.73714286,30.14285714 16.00000000,30.14285714 C18.26285714,30.14285714 20.14857143,28.54000000 20.62000000,26.37142857 L29.20000000,26.37142857 L25.42857143,18.82857143z M16.00000000,28.25714286 C14.77428571,28.25714286 13.73714286,27.50285714 13.36000000,26.37142857 L18.64000000,26.37142857 C18.26285714,27.50285714 17.22571429,28.25714286 16.00000000,28.25714286z M5.62857143,24.48571429 L8.45714286,18.82857143 L8.45714286,11.28571429 C8.45714286,7.13714286 11.85142857,3.74285714 16.00000000,3.74285714 C20.14857143,3.74285714 23.54285714,7.13714286 23.54285714,11.28571429 L23.54285714,18.82857143 L26.37142857,24.48571429 L5.62857143,24.48571429z " fill="#fff" stroke="none" stroke-width="1" stroke-linecap="butt" stroke-linejoin="miter"/>
<path stroke="none" fill="rgba(129, 201, 143, 1)" stroke-width="1" stroke-linecap="butt" stroke-linejoin="miter" d="M30.70000000,6.57500000 C30.70000000,9.72302307 28.14802307,12.27500000 25.00000000,12.27500000 C21.85197693,12.27500000 19.30000000,9.72302307 19.30000000,6.57500000 C19.30000000,3.42697693 21.85197693,0.87500000 25.00000000,0.87500000 C28.14802307,0.87500000 30.70000000,3.42697693 30.70000000,6.57500000z" points="[object Object]"/>
</svg>
